<mxfile host="drawio-plugin" modified="2023-08-27T16:52:10.897Z" agent="5.0 (Windows NT 10.0; Win64; x64) AppleWebKit/537.36 (KHTML, like Gecko) Chrome/111.0.0.0 Safari/537.36" etag="xJzE0ViqFrAh9z7kmLhC" version="20.5.3" type="embed"><diagram id="yGcyJ_xj1IiXWu9tkZZP" name="Page-1"><mxGraphModel dx="753" dy="526" grid="1" gridSize="10" guides="1" tooltips="1" connect="1" arrows="1" fold="1" page="1" pageScale="1" pageWidth="1600" pageHeight="900" background="#ffffff" math="0" shadow="0"><root><mxCell id="0"/><mxCell id="1" parent="0"/><mxCell id="SmObyIpLe6l559C0gqHU-4" value="Observes" style="edgeStyle=orthogonalEdgeStyle;rounded=0;sketch=1;hachureGap=4;jiggle=2;curveFitting=1;orthogonalLoop=1;jettySize=auto;html=1;fontFamily=Architects Daughter;fontSource=https%3A%2F%2Ffonts.googleapis.com%2Fcss%3Ffamily%3DArchitects%2BDaughter;fontSize=16;entryX=1;entryY=0.5;entryDx=0;entryDy=0;" parent="1" source="SmObyIpLe6l559C0gqHU-1" target="SmObyIpLe6l559C0gqHU-28" edge="1"><mxGeometry relative="1" as="geometry"><mxPoint x="280" y="410" as="targetPoint"/></mxGeometry></mxCell><mxCell id="SmObyIpLe6l559C0gqHU-1" value="Source" style="rounded=1;whiteSpace=wrap;html=1;sketch=1;hachureGap=4;jiggle=2;curveFitting=1;fontFamily=Architects Daughter;fontSource=https%3A%2F%2Ffonts.googleapis.com%2Fcss%3Ffamily%3DArchitects%2BDaughter;fontSize=20;" parent="1" vertex="1"><mxGeometry x="380" y="370.75" width="140" height="60" as="geometry"/></mxCell><mxCell id="SmObyIpLe6l559C0gqHU-8" value="GetChanges" style="edgeStyle=orthogonalEdgeStyle;rounded=0;sketch=1;hachureGap=4;jiggle=2;curveFitting=1;orthogonalLoop=1;jettySize=auto;html=1;entryX=1;entryY=0.5;entryDx=0;entryDy=0;fontFamily=Architects Daughter;fontSource=https%3A%2F%2Ffonts.googleapis.com%2Fcss%3Ffamily%3DArchitects%2BDaughter;fontSize=16;exitX=0;exitY=0.5;exitDx=0;exitDy=0;" parent="1" source="SmObyIpLe6l559C0gqHU-17" target="SmObyIpLe6l559C0gqHU-1" edge="1"><mxGeometry relative="1" as="geometry"><mxPoint x="630" y="400" as="sourcePoint"/><mxPoint x="570.0000000000043" y="401.75" as="targetPoint"/></mxGeometry></mxCell><mxCell id="SmObyIpLe6l559C0gqHU-10" value="Publishes&lt;br&gt;To" style="edgeStyle=orthogonalEdgeStyle;rounded=0;sketch=1;hachureGap=4;jiggle=2;curveFitting=1;orthogonalLoop=1;jettySize=auto;html=1;fontFamily=Architects Daughter;fontSource=https%3A%2F%2Ffonts.googleapis.com%2Fcss%3Ffamily%3DArchitects%2BDaughter;fontSize=16;" parent="1" source="SmObyIpLe6l559C0gqHU-2" target="SmObyIpLe6l559C0gqHU-9" edge="1"><mxGeometry relative="1" as="geometry"/></mxCell><mxCell id="SmObyIpLe6l559C0gqHU-2" value="Destination" style="rounded=1;whiteSpace=wrap;html=1;sketch=1;hachureGap=4;jiggle=2;curveFitting=1;fontFamily=Architects Daughter;fontSource=https%3A%2F%2Ffonts.googleapis.com%2Fcss%3Ffamily%3DArchitects%2BDaughter;fontSize=20;" parent="1" vertex="1"><mxGeometry x="925" y="370" width="120" height="60" as="geometry"/></mxCell><mxCell id="SmObyIpLe6l559C0gqHU-3" value="DB" style="shape=cylinder3;whiteSpace=wrap;html=1;boundedLbl=1;backgroundOutline=1;size=15;sketch=1;hachureGap=4;jiggle=2;curveFitting=1;fontFamily=Architects Daughter;fontSource=https%3A%2F%2Ffonts.googleapis.com%2Fcss%3Ffamily%3DArchitects%2BDaughter;fontSize=20;" parent="1" vertex="1"><mxGeometry x="60" y="320" width="60" height="80" as="geometry"/></mxCell><mxCell id="SmObyIpLe6l559C0gqHU-9" value="Event Bus" style="rounded=1;whiteSpace=wrap;html=1;sketch=1;hachureGap=4;jiggle=2;curveFitting=1;fontFamily=Architects Daughter;fontSource=https%3A%2F%2Ffonts.googleapis.com%2Fcss%3Ffamily%3DArchitects%2BDaughter;fontSize=20;" parent="1" vertex="1"><mxGeometry x="1175" y="370" width="120" height="60" as="geometry"/></mxCell><mxCell id="SmObyIpLe6l559C0gqHU-12" value="Implements" style="edgeStyle=orthogonalEdgeStyle;rounded=0;sketch=1;hachureGap=4;jiggle=2;curveFitting=1;orthogonalLoop=1;jettySize=auto;html=1;entryX=0.5;entryY=0;entryDx=0;entryDy=0;fontFamily=Architects Daughter;fontSource=https%3A%2F%2Ffonts.googleapis.com%2Fcss%3Ffamily%3DArchitects%2BDaughter;fontSize=16;" parent="1" source="SmObyIpLe6l559C0gqHU-11" target="SmObyIpLe6l559C0gqHU-1" edge="1"><mxGeometry relative="1" as="geometry"/></mxCell><mxCell id="SmObyIpLe6l559C0gqHU-11" value="SqlServerSource" style="rounded=1;whiteSpace=wrap;html=1;sketch=1;hachureGap=4;jiggle=2;curveFitting=1;fontFamily=Architects Daughter;fontSource=https%3A%2F%2Ffonts.googleapis.com%2Fcss%3Ffamily%3DArchitects%2BDaughter;fontSize=20;" parent="1" vertex="1"><mxGeometry x="345" y="210" width="210" height="60" as="geometry"/></mxCell><mxCell id="SmObyIpLe6l559C0gqHU-14" value="Implements" style="edgeStyle=orthogonalEdgeStyle;rounded=0;sketch=1;hachureGap=4;jiggle=2;curveFitting=1;orthogonalLoop=1;jettySize=auto;html=1;fontFamily=Architects Daughter;fontSource=https%3A%2F%2Ffonts.googleapis.com%2Fcss%3Ffamily%3DArchitects%2BDaughter;fontSize=16;" parent="1" source="SmObyIpLe6l559C0gqHU-13" target="SmObyIpLe6l559C0gqHU-2" edge="1"><mxGeometry relative="1" as="geometry"/></mxCell><mxCell id="SmObyIpLe6l559C0gqHU-13" value="RabbitMQ" style="rounded=1;whiteSpace=wrap;html=1;sketch=1;hachureGap=4;jiggle=2;curveFitting=1;fontFamily=Architects Daughter;fontSource=https%3A%2F%2Ffonts.googleapis.com%2Fcss%3Ffamily%3DArchitects%2BDaughter;fontSize=20;" parent="1" vertex="1"><mxGeometry x="880" y="210" width="210" height="60" as="geometry"/></mxCell><mxCell id="SmObyIpLe6l559C0gqHU-18" style="edgeStyle=orthogonalEdgeStyle;rounded=0;sketch=1;hachureGap=4;jiggle=2;curveFitting=1;orthogonalLoop=1;jettySize=auto;html=1;fontFamily=Architects Daughter;fontSource=https%3A%2F%2Ffonts.googleapis.com%2Fcss%3Ffamily%3DArchitects%2BDaughter;fontSize=16;" parent="1" source="SmObyIpLe6l559C0gqHU-17" target="SmObyIpLe6l559C0gqHU-2" edge="1"><mxGeometry relative="1" as="geometry"/></mxCell><mxCell id="SmObyIpLe6l559C0gqHU-17" value="Propogator" style="rounded=1;whiteSpace=wrap;html=1;sketch=1;hachureGap=4;jiggle=2;curveFitting=1;fontFamily=Architects Daughter;fontSource=https%3A%2F%2Ffonts.googleapis.com%2Fcss%3Ffamily%3DArchitects%2BDaughter;fontSize=20;" parent="1" vertex="1"><mxGeometry x="690" y="370.75" width="120" height="60" as="geometry"/></mxCell><mxCell id="SmObyIpLe6l559C0gqHU-28" value="CDC&lt;br&gt;Table" style="shape=internalStorage;whiteSpace=wrap;html=1;backgroundOutline=1;sketch=1;hachureGap=4;jiggle=2;curveFitting=1;fontFamily=Architects Daughter;fontSource=https%3A%2F%2Ffonts.googleapis.com%2Fcss%3Ffamily%3DArchitects%2BDaughter;fontSize=20;" parent="1" vertex="1"><mxGeometry x="110" y="360.75" width="100" height="80" as="geometry"/></mxCell><mxCell id="SmObyIpLe6l559C0gqHU-29" value="One Source per table/entity observed." style="shape=note;size=15;align=left;spacingLeft=10;html=1;whiteSpace=wrap;sketch=1;hachureGap=4;jiggle=2;curveFitting=1;fontFamily=Architects Daughter;fontSource=https%3A%2F%2Ffonts.googleapis.com%2Fcss%3Ffamily%3DArchitects%2BDaughter;fontSize=20;fillColor=#ffe6cc;strokeColor=#d79b00;" parent="1" vertex="1"><mxGeometry x="190" y="490" width="215" height="70" as="geometry"/></mxCell><mxCell id="SmObyIpLe6l559C0gqHU-30" value="" style="edgeStyle=none;endArrow=none;exitX=0.4;exitY=0;dashed=1;html=1;rounded=0;sketch=1;hachureGap=4;jiggle=2;curveFitting=1;fontFamily=Architects Daughter;fontSource=https%3A%2F%2Ffonts.googleapis.com%2Fcss%3Ffamily%3DArchitects%2BDaughter;fontSize=16;fillColor=#ffe6cc;strokeColor=#d79b00;entryX=0.5;entryY=1;entryDx=0;entryDy=0;" parent="1" target="SmObyIpLe6l559C0gqHU-28" edge="1"><mxGeometry x="1" relative="1" as="geometry"><mxPoint x="125" y="510" as="targetPoint"/><mxPoint x="216" y="490" as="sourcePoint"/></mxGeometry></mxCell><mxCell id="SmObyIpLe6l559C0gqHU-31" value="" style="edgeStyle=none;endArrow=none;exitX=0.8;exitY=0;dashed=1;html=1;rounded=0;sketch=1;hachureGap=4;jiggle=2;curveFitting=1;fontFamily=Architects Daughter;fontSource=https%3A%2F%2Ffonts.googleapis.com%2Fcss%3Ffamily%3DArchitects%2BDaughter;fontSize=16;fillColor=#ffe6cc;strokeColor=#d79b00;entryX=0;entryY=1;entryDx=0;entryDy=0;" parent="1" source="SmObyIpLe6l559C0gqHU-29" target="SmObyIpLe6l559C0gqHU-1" edge="1"><mxGeometry x="1" relative="1" as="geometry"><mxPoint x="345" y="510" as="targetPoint"/></mxGeometry></mxCell><mxCell id="SmObyIpLe6l559C0gqHU-32" value="1" style="text;html=1;strokeColor=none;fillColor=none;align=center;verticalAlign=middle;whiteSpace=wrap;rounded=0;sketch=1;hachureGap=4;jiggle=2;curveFitting=1;fontFamily=Architects Daughter;fontSource=https%3A%2F%2Ffonts.googleapis.com%2Fcss%3Ffamily%3DArchitects%2BDaughter;fontSize=20;" parent="1" vertex="1"><mxGeometry x="220" y="372" width="20" height="30" as="geometry"/></mxCell><mxCell id="SmObyIpLe6l559C0gqHU-33" value="1" style="text;html=1;strokeColor=none;fillColor=none;align=center;verticalAlign=middle;whiteSpace=wrap;rounded=0;sketch=1;hachureGap=4;jiggle=2;curveFitting=1;fontFamily=Architects Daughter;fontSource=https%3A%2F%2Ffonts.googleapis.com%2Fcss%3Ffamily%3DArchitects%2BDaughter;fontSize=20;" parent="1" vertex="1"><mxGeometry x="350" y="372" width="20" height="30" as="geometry"/></mxCell><mxCell id="SmObyIpLe6l559C0gqHU-35" value="1" style="text;html=1;strokeColor=none;fillColor=none;align=center;verticalAlign=middle;whiteSpace=wrap;rounded=0;sketch=1;hachureGap=4;jiggle=2;curveFitting=1;fontFamily=Architects Daughter;fontSource=https%3A%2F%2Ffonts.googleapis.com%2Fcss%3Ffamily%3DArchitects%2BDaughter;fontSize=20;" parent="1" vertex="1"><mxGeometry x="840" y="370.75" width="20" height="30" as="geometry"/></mxCell><mxCell id="SmObyIpLe6l559C0gqHU-37" value="1" style="text;html=1;strokeColor=none;fillColor=none;align=center;verticalAlign=middle;whiteSpace=wrap;rounded=0;sketch=1;hachureGap=4;jiggle=2;curveFitting=1;fontFamily=Architects Daughter;fontSource=https%3A%2F%2Ffonts.googleapis.com%2Fcss%3Ffamily%3DArchitects%2BDaughter;fontSize=20;" parent="1" vertex="1"><mxGeometry x="900" y="370" width="20" height="30" as="geometry"/></mxCell><mxCell id="SmObyIpLe6l559C0gqHU-45" value="SQL Server&lt;br&gt;Oracle&lt;br&gt;PostgreSQL&lt;br&gt;MongoDB" style="shape=note;whiteSpace=wrap;html=1;backgroundOutline=1;fontColor=#000000;darkOpacity=0.05;fillColor=#FFF9B2;strokeColor=none;fillStyle=solid;direction=west;gradientDirection=north;gradientColor=#FFF2A1;shadow=1;size=20;pointerEvents=1;sketch=1;hachureGap=4;jiggle=2;curveFitting=1;fontFamily=Architects Daughter;fontSource=https%3A%2F%2Ffonts.googleapis.com%2Fcss%3Ffamily%3DArchitects%2BDaughter;fontSize=20;" parent="1" vertex="1"><mxGeometry x="150" y="100" width="150" height="140" as="geometry"/></mxCell><mxCell id="SmObyIpLe6l559C0gqHU-46" value="RabbitMQ&lt;br&gt;ActiveMQ&lt;br&gt;Azure Service Bus&lt;br&gt;AWS SQS&lt;br&gt;Kafka&lt;br&gt;AWS Kinesis" style="shape=note;whiteSpace=wrap;html=1;backgroundOutline=1;fontColor=#000000;darkOpacity=0.05;fillColor=#FFF9B2;strokeColor=none;fillStyle=solid;direction=west;gradientDirection=north;gradientColor=#FFF2A1;shadow=1;size=20;pointerEvents=1;sketch=1;hachureGap=4;jiggle=2;curveFitting=1;fontFamily=Architects Daughter;fontSource=https%3A%2F%2Ffonts.googleapis.com%2Fcss%3Ffamily%3DArchitects%2BDaughter;fontSize=20;" parent="1" vertex="1"><mxGeometry x="1120" y="70" width="200" height="180" as="geometry"/></mxCell><mxCell id="2" value="1" style="text;html=1;strokeColor=none;fillColor=none;align=center;verticalAlign=middle;whiteSpace=wrap;rounded=0;sketch=1;hachureGap=4;jiggle=2;curveFitting=1;fontFamily=Architects Daughter;fontSource=https%3A%2F%2Ffonts.googleapis.com%2Fcss%3Ffamily%3DArchitects%2BDaughter;fontSize=20;" vertex="1" parent="1"><mxGeometry x="530" y="372" width="20" height="30" as="geometry"/></mxCell><mxCell id="3" value="1" style="text;html=1;strokeColor=none;fillColor=none;align=center;verticalAlign=middle;whiteSpace=wrap;rounded=0;sketch=1;hachureGap=4;jiggle=2;curveFitting=1;fontFamily=Architects Daughter;fontSource=https%3A%2F%2Ffonts.googleapis.com%2Fcss%3Ffamily%3DArchitects%2BDaughter;fontSize=20;" vertex="1" parent="1"><mxGeometry x="690" y="370" width="20" height="30" as="geometry"/></mxCell></root></mxGraphModel></diagram></mxfile>